<?xml version="1.0" encoding="utf-8"?>
<!-- Generator: Adobe Illustrator 26.4.1, SVG Export Plug-In . SVG Version: 6.00 Build 0)  -->
<svg version="1.1" id="Capa_1" xmlns="http://www.w3.org/2000/svg" xmlns:xlink="http://www.w3.org/1999/xlink" x="0px" y="0px"
	 viewBox="0 0 49 40" style="enable-background:new 0 0 49 40;" xml:space="preserve">
<style type="text/css">
	.st0{fill:url(#SVGID_1_);}
</style>
<linearGradient id="SVGID_1_" gradientUnits="userSpaceOnUse" x1="6.3646" y1="4.9047" x2="42.4355" y2="40.9756">
	<stop  offset="0.4168" style="stop-color:#253785"/>
	<stop  offset="0.5099" style="stop-color:#373284"/>
	<stop  offset="0.6952" style="stop-color:#652580"/>
</linearGradient>
<path class="st0" d="M41.3,24.7H7.5c-4,0-7.2,3.2-7.2,7.2c0,4,3.2,7.2,7.2,7.2h33.7c4,0,7.2-3.2,7.2-7.2
	C48.5,27.9,45.3,24.7,41.3,24.7z M41.3,35.5H7.5c-2,0-3.6-1.6-3.6-3.6c0-2,1.6-3.6,3.6-3.6h33.7c2,0,3.6,1.7,3.6,3.6
	C44.9,33.9,43.2,35.5,41.3,35.5z M10,29.5c-1.4,0-2.4,1.1-2.4,2.4c0,1.4,1.1,2.4,2.4,2.4c1.3,0,2.4-1.1,2.4-2.4
	C12.4,30.6,11.2,29.5,10,29.5z M38.9,29.5c-1.4,0-2.4,1.1-2.4,2.4c0,1.4,1.1,2.4,2.4,2.4c1.3,0,2.4-1.1,2.4-2.4
	C41.3,30.6,40.1,29.5,38.9,29.5z M24.4,29.5c-1.4,0-2.4,1.1-2.4,2.4c0,1.4,1.1,2.4,2.4,2.4c1.3,0,2.4-1.1,2.4-2.4
	C26.8,30.6,25.7,29.5,24.4,29.5z M11.2,22.3h26.5c0.6,0,1.2-0.5,1.2-1.2V1.8c0-0.6-0.6-1.2-1.2-1.2H11.2c-0.7,0-1.2,0.6-1.2,1.2
	v19.3C10,21.8,10.5,22.3,11.2,22.3z M13.6,4.2h6v8.4l4.8-2.4l4.8,2.4V4.2h6v14.5H13.6V4.2z"/>
</svg>
